<?xml version="1.0" standalone="no"?>
<svg xmlns="http://www.w3.org/2000/svg" version="1.1" width="236" height="236">
	<!-- Created with https://api.qrserver.com (QR Code API, see goQR.me/api for information) -->
	<title>QR Code</title>
	<desc>BEGIN:VCARD
VERSION:2.1
FN:Prashant Kumar
N:Kumar;Prashant
TEL;HOME;VOICE:+919452108399
EMAIL;HOME;INTERNET:prashantdrew23@gmail.com
EMAIL;WORK;INTERNET:prashantdrew23@gmail.com
URL:https://www.linkedin.com/in/prashantkumar23
ADR:;;;;;;India
END:VCARD
</desc>
	<rect style="fill:rgb(249, 249, 249);fill-opacity:1" x="0" y="0" width="236" height="236" />
	<g id="elements">
		<path style="fill:rgb(249, 133, 139)" d="M 4,4 l 4,0 0,4 -4,0 z M 8,4 l 4,0 0,4 -4,0 z M 12,4 l 4,0 0,4 -4,0 z M 16,4 l 4,0 0,4 -4,0 z M 20,4 l 4,0 0,4 -4,0 z M 24,4 l 4,0 0,4 -4,0 z M 28,4 l 4,0 0,4 -4,0 z M 56,4 l 4,0 0,4 -4,0 z M 68,4 l 4,0 0,4 -4,0 z M 84,4 l 4,0 0,4 -4,0 z M 88,4 l 4,0 0,4 -4,0 z M 92,4 l 4,0 0,4 -4,0 z M 100,4 l 4,0 0,4 -4,0 z M 104,4 l 4,0 0,4 -4,0 z M 112,4 l 4,0 0,4 -4,0 z M 116,4 l 4,0 0,4 -4,0 z M 124,4 l 4,0 0,4 -4,0 z M 132,4 l 4,0 0,4 -4,0 z M 140,4 l 4,0 0,4 -4,0 z M 148,4 l 4,0 0,4 -4,0 z M 172,4 l 4,0 0,4 -4,0 z M 176,4 l 4,0 0,4 -4,0 z M 188,4 l 4,0 0,4 -4,0 z M 192,4 l 4,0 0,4 -4,0 z M 204,4 l 4,0 0,4 -4,0 z M 208,4 l 4,0 0,4 -4,0 z M 212,4 l 4,0 0,4 -4,0 z M 216,4 l 4,0 0,4 -4,0 z M 220,4 l 4,0 0,4 -4,0 z M 224,4 l 4,0 0,4 -4,0 z M 228,4 l 4,0 0,4 -4,0 z M 4,8 l 4,0 0,4 -4,0 z M 28,8 l 4,0 0,4 -4,0 z M 36,8 l 4,0 0,4 -4,0 z M 40,8 l 4,0 0,4 -4,0 z M 52,8 l 4,0 0,4 -4,0 z M 60,8 l 4,0 0,4 -4,0 z M 64,8 l 4,0 0,4 -4,0 z M 72,8 l 4,0 0,4 -4,0 z M 96,8 l 4,0 0,4 -4,0 z M 112,8 l 4,0 0,4 -4,0 z M 124,8 l 4,0 0,4 -4,0 z M 128,8 l 4,0 0,4 -4,0 z M 132,8 l 4,0 0,4 -4,0 z M 140,8 l 4,0 0,4 -4,0 z M 144,8 l 4,0 0,4 -4,0 z M 148,8 l 4,0 0,4 -4,0 z M 152,8 l 4,0 0,4 -4,0 z M 156,8 l 4,0 0,4 -4,0 z M 164,8 l 4,0 0,4 -4,0 z M 168,8 l 4,0 0,4 -4,0 z M 176,8 l 4,0 0,4 -4,0 z M 192,8 l 4,0 0,4 -4,0 z M 204,8 l 4,0 0,4 -4,0 z M 228,8 l 4,0 0,4 -4,0 z M 4,12 l 4,0 0,4 -4,0 z M 12,12 l 4,0 0,4 -4,0 z M 16,12 l 4,0 0,4 -4,0 z M 20,12 l 4,0 0,4 -4,0 z M 28,12 l 4,0 0,4 -4,0 z M 44,12 l 4,0 0,4 -4,0 z M 52,12 l 4,0 0,4 -4,0 z M 56,12 l 4,0 0,4 -4,0 z M 72,12 l 4,0 0,4 -4,0 z M 76,12 l 4,0 0,4 -4,0 z M 88,12 l 4,0 0,4 -4,0 z M 92,12 l 4,0 0,4 -4,0 z M 96,12 l 4,0 0,4 -4,0 z M 100,12 l 4,0 0,4 -4,0 z M 108,12 l 4,0 0,4 -4,0 z M 112,12 l 4,0 0,4 -4,0 z M 116,12 l 4,0 0,4 -4,0 z M 124,12 l 4,0 0,4 -4,0 z M 128,12 l 4,0 0,4 -4,0 z M 136,12 l 4,0 0,4 -4,0 z M 144,12 l 4,0 0,4 -4,0 z M 148,12 l 4,0 0,4 -4,0 z M 152,12 l 4,0 0,4 -4,0 z M 160,12 l 4,0 0,4 -4,0 z M 164,12 l 4,0 0,4 -4,0 z M 172,12 l 4,0 0,4 -4,0 z M 180,12 l 4,0 0,4 -4,0 z M 188,12 l 4,0 0,4 -4,0 z M 192,12 l 4,0 0,4 -4,0 z M 204,12 l 4,0 0,4 -4,0 z M 212,12 l 4,0 0,4 -4,0 z M 216,12 l 4,0 0,4 -4,0 z M 220,12 l 4,0 0,4 -4,0 z M 228,12 l 4,0 0,4 -4,0 z M 4,16 l 4,0 0,4 -4,0 z M 12,16 l 4,0 0,4 -4,0 z M 16,16 l 4,0 0,4 -4,0 z M 20,16 l 4,0 0,4 -4,0 z M 28,16 l 4,0 0,4 -4,0 z M 36,16 l 4,0 0,4 -4,0 z M 44,16 l 4,0 0,4 -4,0 z M 48,16 l 4,0 0,4 -4,0 z M 52,16 l 4,0 0,4 -4,0 z M 60,16 l 4,0 0,4 -4,0 z M 64,16 l 4,0 0,4 -4,0 z M 80,16 l 4,0 0,4 -4,0 z M 100,16 l 4,0 0,4 -4,0 z M 104,16 l 4,0 0,4 -4,0 z M 108,16 l 4,0 0,4 -4,0 z M 112,16 l 4,0 0,4 -4,0 z M 120,16 l 4,0 0,4 -4,0 z M 136,16 l 4,0 0,4 -4,0 z M 148,16 l 4,0 0,4 -4,0 z M 164,16 l 4,0 0,4 -4,0 z M 172,16 l 4,0 0,4 -4,0 z M 184,16 l 4,0 0,4 -4,0 z M 192,16 l 4,0 0,4 -4,0 z M 204,16 l 4,0 0,4 -4,0 z M 212,16 l 4,0 0,4 -4,0 z M 216,16 l 4,0 0,4 -4,0 z M 220,16 l 4,0 0,4 -4,0 z M 228,16 l 4,0 0,4 -4,0 z M 4,20 l 4,0 0,4 -4,0 z M 12,20 l 4,0 0,4 -4,0 z M 16,20 l 4,0 0,4 -4,0 z M 20,20 l 4,0 0,4 -4,0 z M 28,20 l 4,0 0,4 -4,0 z M 40,20 l 4,0 0,4 -4,0 z M 44,20 l 4,0 0,4 -4,0 z M 60,20 l 4,0 0,4 -4,0 z M 68,20 l 4,0 0,4 -4,0 z M 76,20 l 4,0 0,4 -4,0 z M 88,20 l 4,0 0,4 -4,0 z M 96,20 l 4,0 0,4 -4,0 z M 104,20 l 4,0 0,4 -4,0 z M 108,20 l 4,0 0,4 -4,0 z M 112,20 l 4,0 0,4 -4,0 z M 116,20 l 4,0 0,4 -4,0 z M 120,20 l 4,0 0,4 -4,0 z M 124,20 l 4,0 0,4 -4,0 z M 132,20 l 4,0 0,4 -4,0 z M 152,20 l 4,0 0,4 -4,0 z M 160,20 l 4,0 0,4 -4,0 z M 168,20 l 4,0 0,4 -4,0 z M 172,20 l 4,0 0,4 -4,0 z M 180,20 l 4,0 0,4 -4,0 z M 184,20 l 4,0 0,4 -4,0 z M 192,20 l 4,0 0,4 -4,0 z M 204,20 l 4,0 0,4 -4,0 z M 212,20 l 4,0 0,4 -4,0 z M 216,20 l 4,0 0,4 -4,0 z M 220,20 l 4,0 0,4 -4,0 z M 228,20 l 4,0 0,4 -4,0 z M 4,24 l 4,0 0,4 -4,0 z M 28,24 l 4,0 0,4 -4,0 z M 36,24 l 4,0 0,4 -4,0 z M 48,24 l 4,0 0,4 -4,0 z M 52,24 l 4,0 0,4 -4,0 z M 60,24 l 4,0 0,4 -4,0 z M 64,24 l 4,0 0,4 -4,0 z M 68,24 l 4,0 0,4 -4,0 z M 72,24 l 4,0 0,4 -4,0 z M 80,24 l 4,0 0,4 -4,0 z M 88,24 l 4,0 0,4 -4,0 z M 108,24 l 4,0 0,4 -4,0 z M 124,24 l 4,0 0,4 -4,0 z M 128,24 l 4,0 0,4 -4,0 z M 136,24 l 4,0 0,4 -4,0 z M 140,24 l 4,0 0,4 -4,0 z M 144,24 l 4,0 0,4 -4,0 z M 148,24 l 4,0 0,4 -4,0 z M 156,24 l 4,0 0,4 -4,0 z M 168,24 l 4,0 0,4 -4,0 z M 176,24 l 4,0 0,4 -4,0 z M 180,24 l 4,0 0,4 -4,0 z M 188,24 l 4,0 0,4 -4,0 z M 204,24 l 4,0 0,4 -4,0 z M 228,24 l 4,0 0,4 -4,0 z M 4,28 l 4,0 0,4 -4,0 z M 8,28 l 4,0 0,4 -4,0 z M 12,28 l 4,0 0,4 -4,0 z M 16,28 l 4,0 0,4 -4,0 z M 20,28 l 4,0 0,4 -4,0 z M 24,28 l 4,0 0,4 -4,0 z M 28,28 l 4,0 0,4 -4,0 z M 36,28 l 4,0 0,4 -4,0 z M 44,28 l 4,0 0,4 -4,0 z M 52,28 l 4,0 0,4 -4,0 z M 60,28 l 4,0 0,4 -4,0 z M 68,28 l 4,0 0,4 -4,0 z M 76,28 l 4,0 0,4 -4,0 z M 84,28 l 4,0 0,4 -4,0 z M 92,28 l 4,0 0,4 -4,0 z M 100,28 l 4,0 0,4 -4,0 z M 108,28 l 4,0 0,4 -4,0 z M 116,28 l 4,0 0,4 -4,0 z M 124,28 l 4,0 0,4 -4,0 z M 132,28 l 4,0 0,4 -4,0 z M 140,28 l 4,0 0,4 -4,0 z M 148,28 l 4,0 0,4 -4,0 z M 156,28 l 4,0 0,4 -4,0 z M 164,28 l 4,0 0,4 -4,0 z M 172,28 l 4,0 0,4 -4,0 z M 180,28 l 4,0 0,4 -4,0 z M 188,28 l 4,0 0,4 -4,0 z M 196,28 l 4,0 0,4 -4,0 z M 204,28 l 4,0 0,4 -4,0 z M 208,28 l 4,0 0,4 -4,0 z M 212,28 l 4,0 0,4 -4,0 z M 216,28 l 4,0 0,4 -4,0 z M 220,28 l 4,0 0,4 -4,0 z M 224,28 l 4,0 0,4 -4,0 z M 228,28 l 4,0 0,4 -4,0 z M 44,32 l 4,0 0,4 -4,0 z M 52,32 l 4,0 0,4 -4,0 z M 56,32 l 4,0 0,4 -4,0 z M 68,32 l 4,0 0,4 -4,0 z M 92,32 l 4,0 0,4 -4,0 z M 96,32 l 4,0 0,4 -4,0 z M 104,32 l 4,0 0,4 -4,0 z M 108,32 l 4,0 0,4 -4,0 z M 124,32 l 4,0 0,4 -4,0 z M 128,32 l 4,0 0,4 -4,0 z M 136,32 l 4,0 0,4 -4,0 z M 140,32 l 4,0 0,4 -4,0 z M 148,32 l 4,0 0,4 -4,0 z M 156,32 l 4,0 0,4 -4,0 z M 164,32 l 4,0 0,4 -4,0 z M 172,32 l 4,0 0,4 -4,0 z M 176,32 l 4,0 0,4 -4,0 z M 180,32 l 4,0 0,4 -4,0 z M 184,32 l 4,0 0,4 -4,0 z M 192,32 l 4,0 0,4 -4,0 z M 196,32 l 4,0 0,4 -4,0 z M 4,36 l 4,0 0,4 -4,0 z M 8,36 l 4,0 0,4 -4,0 z M 12,36 l 4,0 0,4 -4,0 z M 16,36 l 4,0 0,4 -4,0 z M 20,36 l 4,0 0,4 -4,0 z M 28,36 l 4,0 0,4 -4,0 z M 32,36 l 4,0 0,4 -4,0 z M 36,36 l 4,0 0,4 -4,0 z M 40,36 l 4,0 0,4 -4,0 z M 44,36 l 4,0 0,4 -4,0 z M 48,36 l 4,0 0,4 -4,0 z M 52,36 l 4,0 0,4 -4,0 z M 56,36 l 4,0 0,4 -4,0 z M 64,36 l 4,0 0,4 -4,0 z M 68,36 l 4,0 0,4 -4,0 z M 72,36 l 4,0 0,4 -4,0 z M 76,36 l 4,0 0,4 -4,0 z M 84,36 l 4,0 0,4 -4,0 z M 88,36 l 4,0 0,4 -4,0 z M 96,36 l 4,0 0,4 -4,0 z M 108,36 l 4,0 0,4 -4,0 z M 112,36 l 4,0 0,4 -4,0 z M 116,36 l 4,0 0,4 -4,0 z M 120,36 l 4,0 0,4 -4,0 z M 124,36 l 4,0 0,4 -4,0 z M 144,36 l 4,0 0,4 -4,0 z M 148,36 l 4,0 0,4 -4,0 z M 156,36 l 4,0 0,4 -4,0 z M 160,36 l 4,0 0,4 -4,0 z M 176,36 l 4,0 0,4 -4,0 z M 200,36 l 4,0 0,4 -4,0 z M 208,36 l 4,0 0,4 -4,0 z M 216,36 l 4,0 0,4 -4,0 z M 224,36 l 4,0 0,4 -4,0 z M 4,40 l 4,0 0,4 -4,0 z M 8,40 l 4,0 0,4 -4,0 z M 12,40 l 4,0 0,4 -4,0 z M 20,40 l 4,0 0,4 -4,0 z M 36,40 l 4,0 0,4 -4,0 z M 48,40 l 4,0 0,4 -4,0 z M 52,40 l 4,0 0,4 -4,0 z M 60,40 l 4,0 0,4 -4,0 z M 92,40 l 4,0 0,4 -4,0 z M 96,40 l 4,0 0,4 -4,0 z M 100,40 l 4,0 0,4 -4,0 z M 104,40 l 4,0 0,4 -4,0 z M 112,40 l 4,0 0,4 -4,0 z M 120,40 l 4,0 0,4 -4,0 z M 124,40 l 4,0 0,4 -4,0 z M 144,40 l 4,0 0,4 -4,0 z M 160,40 l 4,0 0,4 -4,0 z M 164,40 l 4,0 0,4 -4,0 z M 172,40 l 4,0 0,4 -4,0 z M 176,40 l 4,0 0,4 -4,0 z M 192,40 l 4,0 0,4 -4,0 z M 196,40 l 4,0 0,4 -4,0 z M 208,40 l 4,0 0,4 -4,0 z M 212,40 l 4,0 0,4 -4,0 z M 216,40 l 4,0 0,4 -4,0 z M 220,40 l 4,0 0,4 -4,0 z M 228,40 l 4,0 0,4 -4,0 z M 4,44 l 4,0 0,4 -4,0 z M 8,44 l 4,0 0,4 -4,0 z M 12,44 l 4,0 0,4 -4,0 z M 20,44 l 4,0 0,4 -4,0 z M 28,44 l 4,0 0,4 -4,0 z M 44,44 l 4,0 0,4 -4,0 z M 48,44 l 4,0 0,4 -4,0 z M 52,44 l 4,0 0,4 -4,0 z M 64,44 l 4,0 0,4 -4,0 z M 72,44 l 4,0 0,4 -4,0 z M 80,44 l 4,0 0,4 -4,0 z M 84,44 l 4,0 0,4 -4,0 z M 88,44 l 4,0 0,4 -4,0 z M 100,44 l 4,0 0,4 -4,0 z M 104,44 l 4,0 0,4 -4,0 z M 108,44 l 4,0 0,4 -4,0 z M 116,44 l 4,0 0,4 -4,0 z M 136,44 l 4,0 0,4 -4,0 z M 140,44 l 4,0 0,4 -4,0 z M 152,44 l 4,0 0,4 -4,0 z M 156,44 l 4,0 0,4 -4,0 z M 160,44 l 4,0 0,4 -4,0 z M 168,44 l 4,0 0,4 -4,0 z M 184,44 l 4,0 0,4 -4,0 z M 188,44 l 4,0 0,4 -4,0 z M 196,44 l 4,0 0,4 -4,0 z M 208,44 l 4,0 0,4 -4,0 z M 212,44 l 4,0 0,4 -4,0 z M 216,44 l 4,0 0,4 -4,0 z M 220,44 l 4,0 0,4 -4,0 z M 224,44 l 4,0 0,4 -4,0 z M 4,48 l 4,0 0,4 -4,0 z M 8,48 l 4,0 0,4 -4,0 z M 12,48 l 4,0 0,4 -4,0 z M 16,48 l 4,0 0,4 -4,0 z M 40,48 l 4,0 0,4 -4,0 z M 44,48 l 4,0 0,4 -4,0 z M 56,48 l 4,0 0,4 -4,0 z M 80,48 l 4,0 0,4 -4,0 z M 100,48 l 4,0 0,4 -4,0 z M 104,48 l 4,0 0,4 -4,0 z M 116,48 l 4,0 0,4 -4,0 z M 124,48 l 4,0 0,4 -4,0 z M 132,48 l 4,0 0,4 -4,0 z M 148,48 l 4,0 0,4 -4,0 z M 164,48 l 4,0 0,4 -4,0 z M 172,48 l 4,0 0,4 -4,0 z M 176,48 l 4,0 0,4 -4,0 z M 180,48 l 4,0 0,4 -4,0 z M 184,48 l 4,0 0,4 -4,0 z M 196,48 l 4,0 0,4 -4,0 z M 200,48 l 4,0 0,4 -4,0 z M 208,48 l 4,0 0,4 -4,0 z M 216,48 l 4,0 0,4 -4,0 z M 220,48 l 4,0 0,4 -4,0 z M 224,48 l 4,0 0,4 -4,0 z M 228,48 l 4,0 0,4 -4,0 z M 8,52 l 4,0 0,4 -4,0 z M 24,52 l 4,0 0,4 -4,0 z M 28,52 l 4,0 0,4 -4,0 z M 36,52 l 4,0 0,4 -4,0 z M 40,52 l 4,0 0,4 -4,0 z M 48,52 l 4,0 0,4 -4,0 z M 52,52 l 4,0 0,4 -4,0 z M 64,52 l 4,0 0,4 -4,0 z M 68,52 l 4,0 0,4 -4,0 z M 72,52 l 4,0 0,4 -4,0 z M 84,52 l 4,0 0,4 -4,0 z M 88,52 l 4,0 0,4 -4,0 z M 104,52 l 4,0 0,4 -4,0 z M 112,52 l 4,0 0,4 -4,0 z M 116,52 l 4,0 0,4 -4,0 z M 128,52 l 4,0 0,4 -4,0 z M 136,52 l 4,0 0,4 -4,0 z M 140,52 l 4,0 0,4 -4,0 z M 144,52 l 4,0 0,4 -4,0 z M 148,52 l 4,0 0,4 -4,0 z M 152,52 l 4,0 0,4 -4,0 z M 156,52 l 4,0 0,4 -4,0 z M 168,52 l 4,0 0,4 -4,0 z M 172,52 l 4,0 0,4 -4,0 z M 176,52 l 4,0 0,4 -4,0 z M 196,52 l 4,0 0,4 -4,0 z M 200,52 l 4,0 0,4 -4,0 z M 204,52 l 4,0 0,4 -4,0 z M 216,52 l 4,0 0,4 -4,0 z M 224,52 l 4,0 0,4 -4,0 z M 228,52 l 4,0 0,4 -4,0 z M 8,56 l 4,0 0,4 -4,0 z M 12,56 l 4,0 0,4 -4,0 z M 16,56 l 4,0 0,4 -4,0 z M 20,56 l 4,0 0,4 -4,0 z M 36,56 l 4,0 0,4 -4,0 z M 44,56 l 4,0 0,4 -4,0 z M 52,56 l 4,0 0,4 -4,0 z M 56,56 l 4,0 0,4 -4,0 z M 64,56 l 4,0 0,4 -4,0 z M 68,56 l 4,0 0,4 -4,0 z M 76,56 l 4,0 0,4 -4,0 z M 96,56 l 4,0 0,4 -4,0 z M 104,56 l 4,0 0,4 -4,0 z M 108,56 l 4,0 0,4 -4,0 z M 112,56 l 4,0 0,4 -4,0 z M 132,56 l 4,0 0,4 -4,0 z M 140,56 l 4,0 0,4 -4,0 z M 144,56 l 4,0 0,4 -4,0 z M 156,56 l 4,0 0,4 -4,0 z M 160,56 l 4,0 0,4 -4,0 z M 164,56 l 4,0 0,4 -4,0 z M 172,56 l 4,0 0,4 -4,0 z M 176,56 l 4,0 0,4 -4,0 z M 196,56 l 4,0 0,4 -4,0 z M 200,56 l 4,0 0,4 -4,0 z M 212,56 l 4,0 0,4 -4,0 z M 220,56 l 4,0 0,4 -4,0 z M 4,60 l 4,0 0,4 -4,0 z M 8,60 l 4,0 0,4 -4,0 z M 12,60 l 4,0 0,4 -4,0 z M 20,60 l 4,0 0,4 -4,0 z M 24,60 l 4,0 0,4 -4,0 z M 28,60 l 4,0 0,4 -4,0 z M 32,60 l 4,0 0,4 -4,0 z M 40,60 l 4,0 0,4 -4,0 z M 44,60 l 4,0 0,4 -4,0 z M 52,60 l 4,0 0,4 -4,0 z M 56,60 l 4,0 0,4 -4,0 z M 60,60 l 4,0 0,4 -4,0 z M 64,60 l 4,0 0,4 -4,0 z M 72,60 l 4,0 0,4 -4,0 z M 76,60 l 4,0 0,4 -4,0 z M 80,60 l 4,0 0,4 -4,0 z M 104,60 l 4,0 0,4 -4,0 z M 128,60 l 4,0 0,4 -4,0 z M 132,60 l 4,0 0,4 -4,0 z M 136,60 l 4,0 0,4 -4,0 z M 140,60 l 4,0 0,4 -4,0 z M 148,60 l 4,0 0,4 -4,0 z M 156,60 l 4,0 0,4 -4,0 z M 164,60 l 4,0 0,4 -4,0 z M 172,60 l 4,0 0,4 -4,0 z M 180,60 l 4,0 0,4 -4,0 z M 188,60 l 4,0 0,4 -4,0 z M 204,60 l 4,0 0,4 -4,0 z M 220,60 l 4,0 0,4 -4,0 z M 228,60 l 4,0 0,4 -4,0 z M 4,64 l 4,0 0,4 -4,0 z M 8,64 l 4,0 0,4 -4,0 z M 12,64 l 4,0 0,4 -4,0 z M 16,64 l 4,0 0,4 -4,0 z M 24,64 l 4,0 0,4 -4,0 z M 36,64 l 4,0 0,4 -4,0 z M 44,64 l 4,0 0,4 -4,0 z M 60,64 l 4,0 0,4 -4,0 z M 64,64 l 4,0 0,4 -4,0 z M 68,64 l 4,0 0,4 -4,0 z M 72,64 l 4,0 0,4 -4,0 z M 76,64 l 4,0 0,4 -4,0 z M 80,64 l 4,0 0,4 -4,0 z M 84,64 l 4,0 0,4 -4,0 z M 88,64 l 4,0 0,4 -4,0 z M 92,64 l 4,0 0,4 -4,0 z M 96,64 l 4,0 0,4 -4,0 z M 104,64 l 4,0 0,4 -4,0 z M 108,64 l 4,0 0,4 -4,0 z M 116,64 l 4,0 0,4 -4,0 z M 120,64 l 4,0 0,4 -4,0 z M 124,64 l 4,0 0,4 -4,0 z M 136,64 l 4,0 0,4 -4,0 z M 152,64 l 4,0 0,4 -4,0 z M 164,64 l 4,0 0,4 -4,0 z M 168,64 l 4,0 0,4 -4,0 z M 172,64 l 4,0 0,4 -4,0 z M 176,64 l 4,0 0,4 -4,0 z M 188,64 l 4,0 0,4 -4,0 z M 196,64 l 4,0 0,4 -4,0 z M 212,64 l 4,0 0,4 -4,0 z M 216,64 l 4,0 0,4 -4,0 z M 224,64 l 4,0 0,4 -4,0 z M 4,68 l 4,0 0,4 -4,0 z M 16,68 l 4,0 0,4 -4,0 z M 20,68 l 4,0 0,4 -4,0 z M 24,68 l 4,0 0,4 -4,0 z M 28,68 l 4,0 0,4 -4,0 z M 36,68 l 4,0 0,4 -4,0 z M 40,68 l 4,0 0,4 -4,0 z M 44,68 l 4,0 0,4 -4,0 z M 52,68 l 4,0 0,4 -4,0 z M 68,68 l 4,0 0,4 -4,0 z M 72,68 l 4,0 0,4 -4,0 z M 76,68 l 4,0 0,4 -4,0 z M 88,68 l 4,0 0,4 -4,0 z M 100,68 l 4,0 0,4 -4,0 z M 112,68 l 4,0 0,4 -4,0 z M 120,68 l 4,0 0,4 -4,0 z M 132,68 l 4,0 0,4 -4,0 z M 140,68 l 4,0 0,4 -4,0 z M 152,68 l 4,0 0,4 -4,0 z M 160,68 l 4,0 0,4 -4,0 z M 168,68 l 4,0 0,4 -4,0 z M 172,68 l 4,0 0,4 -4,0 z M 184,68 l 4,0 0,4 -4,0 z M 216,68 l 4,0 0,4 -4,0 z M 228,68 l 4,0 0,4 -4,0 z M 16,72 l 4,0 0,4 -4,0 z M 32,72 l 4,0 0,4 -4,0 z M 40,72 l 4,0 0,4 -4,0 z M 44,72 l 4,0 0,4 -4,0 z M 48,72 l 4,0 0,4 -4,0 z M 52,72 l 4,0 0,4 -4,0 z M 60,72 l 4,0 0,4 -4,0 z M 68,72 l 4,0 0,4 -4,0 z M 76,72 l 4,0 0,4 -4,0 z M 80,72 l 4,0 0,4 -4,0 z M 100,72 l 4,0 0,4 -4,0 z M 104,72 l 4,0 0,4 -4,0 z M 108,72 l 4,0 0,4 -4,0 z M 116,72 l 4,0 0,4 -4,0 z M 124,72 l 4,0 0,4 -4,0 z M 144,72 l 4,0 0,4 -4,0 z M 148,72 l 4,0 0,4 -4,0 z M 172,72 l 4,0 0,4 -4,0 z M 176,72 l 4,0 0,4 -4,0 z M 192,72 l 4,0 0,4 -4,0 z M 196,72 l 4,0 0,4 -4,0 z M 200,72 l 4,0 0,4 -4,0 z M 212,72 l 4,0 0,4 -4,0 z M 216,72 l 4,0 0,4 -4,0 z M 220,72 l 4,0 0,4 -4,0 z M 8,76 l 4,0 0,4 -4,0 z M 12,76 l 4,0 0,4 -4,0 z M 20,76 l 4,0 0,4 -4,0 z M 24,76 l 4,0 0,4 -4,0 z M 28,76 l 4,0 0,4 -4,0 z M 48,76 l 4,0 0,4 -4,0 z M 56,76 l 4,0 0,4 -4,0 z M 60,76 l 4,0 0,4 -4,0 z M 64,76 l 4,0 0,4 -4,0 z M 72,76 l 4,0 0,4 -4,0 z M 76,76 l 4,0 0,4 -4,0 z M 80,76 l 4,0 0,4 -4,0 z M 84,76 l 4,0 0,4 -4,0 z M 96,76 l 4,0 0,4 -4,0 z M 100,76 l 4,0 0,4 -4,0 z M 116,76 l 4,0 0,4 -4,0 z M 128,76 l 4,0 0,4 -4,0 z M 148,76 l 4,0 0,4 -4,0 z M 152,76 l 4,0 0,4 -4,0 z M 160,76 l 4,0 0,4 -4,0 z M 172,76 l 4,0 0,4 -4,0 z M 180,76 l 4,0 0,4 -4,0 z M 184,76 l 4,0 0,4 -4,0 z M 188,76 l 4,0 0,4 -4,0 z M 196,76 l 4,0 0,4 -4,0 z M 200,76 l 4,0 0,4 -4,0 z M 204,76 l 4,0 0,4 -4,0 z M 212,76 l 4,0 0,4 -4,0 z M 216,76 l 4,0 0,4 -4,0 z M 4,80 l 4,0 0,4 -4,0 z M 8,80 l 4,0 0,4 -4,0 z M 16,80 l 4,0 0,4 -4,0 z M 24,80 l 4,0 0,4 -4,0 z M 32,80 l 4,0 0,4 -4,0 z M 36,80 l 4,0 0,4 -4,0 z M 40,80 l 4,0 0,4 -4,0 z M 48,80 l 4,0 0,4 -4,0 z M 60,80 l 4,0 0,4 -4,0 z M 72,80 l 4,0 0,4 -4,0 z M 76,80 l 4,0 0,4 -4,0 z M 80,80 l 4,0 0,4 -4,0 z M 88,80 l 4,0 0,4 -4,0 z M 92,80 l 4,0 0,4 -4,0 z M 96,80 l 4,0 0,4 -4,0 z M 100,80 l 4,0 0,4 -4,0 z M 120,80 l 4,0 0,4 -4,0 z M 128,80 l 4,0 0,4 -4,0 z M 148,80 l 4,0 0,4 -4,0 z M 152,80 l 4,0 0,4 -4,0 z M 160,80 l 4,0 0,4 -4,0 z M 164,80 l 4,0 0,4 -4,0 z M 172,80 l 4,0 0,4 -4,0 z M 180,80 l 4,0 0,4 -4,0 z M 184,80 l 4,0 0,4 -4,0 z M 188,80 l 4,0 0,4 -4,0 z M 200,80 l 4,0 0,4 -4,0 z M 204,80 l 4,0 0,4 -4,0 z M 208,80 l 4,0 0,4 -4,0 z M 212,80 l 4,0 0,4 -4,0 z M 216,80 l 4,0 0,4 -4,0 z M 220,80 l 4,0 0,4 -4,0 z M 228,80 l 4,0 0,4 -4,0 z M 4,84 l 4,0 0,4 -4,0 z M 12,84 l 4,0 0,4 -4,0 z M 20,84 l 4,0 0,4 -4,0 z M 24,84 l 4,0 0,4 -4,0 z M 28,84 l 4,0 0,4 -4,0 z M 36,84 l 4,0 0,4 -4,0 z M 52,84 l 4,0 0,4 -4,0 z M 56,84 l 4,0 0,4 -4,0 z M 60,84 l 4,0 0,4 -4,0 z M 72,84 l 4,0 0,4 -4,0 z M 100,84 l 4,0 0,4 -4,0 z M 104,84 l 4,0 0,4 -4,0 z M 108,84 l 4,0 0,4 -4,0 z M 128,84 l 4,0 0,4 -4,0 z M 132,84 l 4,0 0,4 -4,0 z M 140,84 l 4,0 0,4 -4,0 z M 176,84 l 4,0 0,4 -4,0 z M 184,84 l 4,0 0,4 -4,0 z M 188,84 l 4,0 0,4 -4,0 z M 200,84 l 4,0 0,4 -4,0 z M 12,88 l 4,0 0,4 -4,0 z M 16,88 l 4,0 0,4 -4,0 z M 20,88 l 4,0 0,4 -4,0 z M 40,88 l 4,0 0,4 -4,0 z M 44,88 l 4,0 0,4 -4,0 z M 48,88 l 4,0 0,4 -4,0 z M 52,88 l 4,0 0,4 -4,0 z M 64,88 l 4,0 0,4 -4,0 z M 76,88 l 4,0 0,4 -4,0 z M 80,88 l 4,0 0,4 -4,0 z M 84,88 l 4,0 0,4 -4,0 z M 88,88 l 4,0 0,4 -4,0 z M 92,88 l 4,0 0,4 -4,0 z M 100,88 l 4,0 0,4 -4,0 z M 104,88 l 4,0 0,4 -4,0 z M 120,88 l 4,0 0,4 -4,0 z M 124,88 l 4,0 0,4 -4,0 z M 132,88 l 4,0 0,4 -4,0 z M 152,88 l 4,0 0,4 -4,0 z M 160,88 l 4,0 0,4 -4,0 z M 168,88 l 4,0 0,4 -4,0 z M 172,88 l 4,0 0,4 -4,0 z M 188,88 l 4,0 0,4 -4,0 z M 196,88 l 4,0 0,4 -4,0 z M 200,88 l 4,0 0,4 -4,0 z M 216,88 l 4,0 0,4 -4,0 z M 224,88 l 4,0 0,4 -4,0 z M 228,88 l 4,0 0,4 -4,0 z M 4,92 l 4,0 0,4 -4,0 z M 8,92 l 4,0 0,4 -4,0 z M 20,92 l 4,0 0,4 -4,0 z M 24,92 l 4,0 0,4 -4,0 z M 28,92 l 4,0 0,4 -4,0 z M 32,92 l 4,0 0,4 -4,0 z M 36,92 l 4,0 0,4 -4,0 z M 40,92 l 4,0 0,4 -4,0 z M 48,92 l 4,0 0,4 -4,0 z M 52,92 l 4,0 0,4 -4,0 z M 72,92 l 4,0 0,4 -4,0 z M 84,92 l 4,0 0,4 -4,0 z M 88,92 l 4,0 0,4 -4,0 z M 92,92 l 4,0 0,4 -4,0 z M 100,92 l 4,0 0,4 -4,0 z M 108,92 l 4,0 0,4 -4,0 z M 124,92 l 4,0 0,4 -4,0 z M 128,92 l 4,0 0,4 -4,0 z M 136,92 l 4,0 0,4 -4,0 z M 140,92 l 4,0 0,4 -4,0 z M 144,92 l 4,0 0,4 -4,0 z M 148,92 l 4,0 0,4 -4,0 z M 152,92 l 4,0 0,4 -4,0 z M 156,92 l 4,0 0,4 -4,0 z M 180,92 l 4,0 0,4 -4,0 z M 184,92 l 4,0 0,4 -4,0 z M 192,92 l 4,0 0,4 -4,0 z M 196,92 l 4,0 0,4 -4,0 z M 208,92 l 4,0 0,4 -4,0 z M 212,92 l 4,0 0,4 -4,0 z M 216,92 l 4,0 0,4 -4,0 z M 220,92 l 4,0 0,4 -4,0 z M 224,92 l 4,0 0,4 -4,0 z M 228,92 l 4,0 0,4 -4,0 z M 4,96 l 4,0 0,4 -4,0 z M 8,96 l 4,0 0,4 -4,0 z M 16,96 l 4,0 0,4 -4,0 z M 20,96 l 4,0 0,4 -4,0 z M 36,96 l 4,0 0,4 -4,0 z M 40,96 l 4,0 0,4 -4,0 z M 44,96 l 4,0 0,4 -4,0 z M 48,96 l 4,0 0,4 -4,0 z M 60,96 l 4,0 0,4 -4,0 z M 64,96 l 4,0 0,4 -4,0 z M 76,96 l 4,0 0,4 -4,0 z M 80,96 l 4,0 0,4 -4,0 z M 84,96 l 4,0 0,4 -4,0 z M 88,96 l 4,0 0,4 -4,0 z M 92,96 l 4,0 0,4 -4,0 z M 100,96 l 4,0 0,4 -4,0 z M 108,96 l 4,0 0,4 -4,0 z M 112,96 l 4,0 0,4 -4,0 z M 120,96 l 4,0 0,4 -4,0 z M 132,96 l 4,0 0,4 -4,0 z M 140,96 l 4,0 0,4 -4,0 z M 144,96 l 4,0 0,4 -4,0 z M 156,96 l 4,0 0,4 -4,0 z M 172,96 l 4,0 0,4 -4,0 z M 180,96 l 4,0 0,4 -4,0 z M 188,96 l 4,0 0,4 -4,0 z M 192,96 l 4,0 0,4 -4,0 z M 200,96 l 4,0 0,4 -4,0 z M 208,96 l 4,0 0,4 -4,0 z M 212,96 l 4,0 0,4 -4,0 z M 220,96 l 4,0 0,4 -4,0 z M 224,96 l 4,0 0,4 -4,0 z M 228,96 l 4,0 0,4 -4,0 z M 8,100 l 4,0 0,4 -4,0 z M 12,100 l 4,0 0,4 -4,0 z M 16,100 l 4,0 0,4 -4,0 z M 20,100 l 4,0 0,4 -4,0 z M 24,100 l 4,0 0,4 -4,0 z M 28,100 l 4,0 0,4 -4,0 z M 36,100 l 4,0 0,4 -4,0 z M 40,100 l 4,0 0,4 -4,0 z M 48,100 l 4,0 0,4 -4,0 z M 64,100 l 4,0 0,4 -4,0 z M 68,100 l 4,0 0,4 -4,0 z M 72,100 l 4,0 0,4 -4,0 z M 76,100 l 4,0 0,4 -4,0 z M 80,100 l 4,0 0,4 -4,0 z M 84,100 l 4,0 0,4 -4,0 z M 88,100 l 4,0 0,4 -4,0 z M 96,100 l 4,0 0,4 -4,0 z M 108,100 l 4,0 0,4 -4,0 z M 112,100 l 4,0 0,4 -4,0 z M 120,100 l 4,0 0,4 -4,0 z M 136,100 l 4,0 0,4 -4,0 z M 140,100 l 4,0 0,4 -4,0 z M 148,100 l 4,0 0,4 -4,0 z M 152,100 l 4,0 0,4 -4,0 z M 156,100 l 4,0 0,4 -4,0 z M 176,100 l 4,0 0,4 -4,0 z M 184,100 l 4,0 0,4 -4,0 z M 188,100 l 4,0 0,4 -4,0 z M 192,100 l 4,0 0,4 -4,0 z M 196,100 l 4,0 0,4 -4,0 z M 208,100 l 4,0 0,4 -4,0 z M 224,100 l 4,0 0,4 -4,0 z M 8,104 l 4,0 0,4 -4,0 z M 16,104 l 4,0 0,4 -4,0 z M 20,104 l 4,0 0,4 -4,0 z M 24,104 l 4,0 0,4 -4,0 z M 32,104 l 4,0 0,4 -4,0 z M 36,104 l 4,0 0,4 -4,0 z M 48,104 l 4,0 0,4 -4,0 z M 56,104 l 4,0 0,4 -4,0 z M 60,104 l 4,0 0,4 -4,0 z M 80,104 l 4,0 0,4 -4,0 z M 88,104 l 4,0 0,4 -4,0 z M 92,104 l 4,0 0,4 -4,0 z M 96,104 l 4,0 0,4 -4,0 z M 100,104 l 4,0 0,4 -4,0 z M 104,104 l 4,0 0,4 -4,0 z M 120,104 l 4,0 0,4 -4,0 z M 124,104 l 4,0 0,4 -4,0 z M 132,104 l 4,0 0,4 -4,0 z M 144,104 l 4,0 0,4 -4,0 z M 160,104 l 4,0 0,4 -4,0 z M 172,104 l 4,0 0,4 -4,0 z M 176,104 l 4,0 0,4 -4,0 z M 196,104 l 4,0 0,4 -4,0 z M 208,104 l 4,0 0,4 -4,0 z M 212,104 l 4,0 0,4 -4,0 z M 220,104 l 4,0 0,4 -4,0 z M 228,104 l 4,0 0,4 -4,0 z M 4,108 l 4,0 0,4 -4,0 z M 8,108 l 4,0 0,4 -4,0 z M 12,108 l 4,0 0,4 -4,0 z M 20,108 l 4,0 0,4 -4,0 z M 24,108 l 4,0 0,4 -4,0 z M 28,108 l 4,0 0,4 -4,0 z M 32,108 l 4,0 0,4 -4,0 z M 36,108 l 4,0 0,4 -4,0 z M 40,108 l 4,0 0,4 -4,0 z M 76,108 l 4,0 0,4 -4,0 z M 80,108 l 4,0 0,4 -4,0 z M 84,108 l 4,0 0,4 -4,0 z M 92,108 l 4,0 0,4 -4,0 z M 100,108 l 4,0 0,4 -4,0 z M 104,108 l 4,0 0,4 -4,0 z M 108,108 l 4,0 0,4 -4,0 z M 112,108 l 4,0 0,4 -4,0 z M 116,108 l 4,0 0,4 -4,0 z M 120,108 l 4,0 0,4 -4,0 z M 124,108 l 4,0 0,4 -4,0 z M 132,108 l 4,0 0,4 -4,0 z M 136,108 l 4,0 0,4 -4,0 z M 140,108 l 4,0 0,4 -4,0 z M 152,108 l 4,0 0,4 -4,0 z M 156,108 l 4,0 0,4 -4,0 z M 168,108 l 4,0 0,4 -4,0 z M 176,108 l 4,0 0,4 -4,0 z M 180,108 l 4,0 0,4 -4,0 z M 188,108 l 4,0 0,4 -4,0 z M 192,108 l 4,0 0,4 -4,0 z M 196,108 l 4,0 0,4 -4,0 z M 200,108 l 4,0 0,4 -4,0 z M 204,108 l 4,0 0,4 -4,0 z M 208,108 l 4,0 0,4 -4,0 z M 212,108 l 4,0 0,4 -4,0 z M 216,108 l 4,0 0,4 -4,0 z M 220,108 l 4,0 0,4 -4,0 z M 224,108 l 4,0 0,4 -4,0 z M 4,112 l 4,0 0,4 -4,0 z M 8,112 l 4,0 0,4 -4,0 z M 16,112 l 4,0 0,4 -4,0 z M 20,112 l 4,0 0,4 -4,0 z M 36,112 l 4,0 0,4 -4,0 z M 44,112 l 4,0 0,4 -4,0 z M 60,112 l 4,0 0,4 -4,0 z M 72,112 l 4,0 0,4 -4,0 z M 76,112 l 4,0 0,4 -4,0 z M 80,112 l 4,0 0,4 -4,0 z M 88,112 l 4,0 0,4 -4,0 z M 92,112 l 4,0 0,4 -4,0 z M 96,112 l 4,0 0,4 -4,0 z M 100,112 l 4,0 0,4 -4,0 z M 108,112 l 4,0 0,4 -4,0 z M 124,112 l 4,0 0,4 -4,0 z M 132,112 l 4,0 0,4 -4,0 z M 144,112 l 4,0 0,4 -4,0 z M 152,112 l 4,0 0,4 -4,0 z M 160,112 l 4,0 0,4 -4,0 z M 164,112 l 4,0 0,4 -4,0 z M 172,112 l 4,0 0,4 -4,0 z M 176,112 l 4,0 0,4 -4,0 z M 192,112 l 4,0 0,4 -4,0 z M 196,112 l 4,0 0,4 -4,0 z M 212,112 l 4,0 0,4 -4,0 z M 216,112 l 4,0 0,4 -4,0 z M 220,112 l 4,0 0,4 -4,0 z M 224,112 l 4,0 0,4 -4,0 z M 228,112 l 4,0 0,4 -4,0 z M 12,116 l 4,0 0,4 -4,0 z M 20,116 l 4,0 0,4 -4,0 z M 28,116 l 4,0 0,4 -4,0 z M 36,116 l 4,0 0,4 -4,0 z M 44,116 l 4,0 0,4 -4,0 z M 48,116 l 4,0 0,4 -4,0 z M 52,116 l 4,0 0,4 -4,0 z M 56,116 l 4,0 0,4 -4,0 z M 60,116 l 4,0 0,4 -4,0 z M 64,116 l 4,0 0,4 -4,0 z M 76,116 l 4,0 0,4 -4,0 z M 84,116 l 4,0 0,4 -4,0 z M 92,116 l 4,0 0,4 -4,0 z M 104,116 l 4,0 0,4 -4,0 z M 108,116 l 4,0 0,4 -4,0 z M 116,116 l 4,0 0,4 -4,0 z M 124,116 l 4,0 0,4 -4,0 z M 140,116 l 4,0 0,4 -4,0 z M 148,116 l 4,0 0,4 -4,0 z M 152,116 l 4,0 0,4 -4,0 z M 168,116 l 4,0 0,4 -4,0 z M 172,116 l 4,0 0,4 -4,0 z M 176,116 l 4,0 0,4 -4,0 z M 184,116 l 4,0 0,4 -4,0 z M 188,116 l 4,0 0,4 -4,0 z M 192,116 l 4,0 0,4 -4,0 z M 196,116 l 4,0 0,4 -4,0 z M 204,116 l 4,0 0,4 -4,0 z M 212,116 l 4,0 0,4 -4,0 z M 220,116 l 4,0 0,4 -4,0 z M 16,120 l 4,0 0,4 -4,0 z M 20,120 l 4,0 0,4 -4,0 z M 36,120 l 4,0 0,4 -4,0 z M 44,120 l 4,0 0,4 -4,0 z M 60,120 l 4,0 0,4 -4,0 z M 72,120 l 4,0 0,4 -4,0 z M 76,120 l 4,0 0,4 -4,0 z M 88,120 l 4,0 0,4 -4,0 z M 104,120 l 4,0 0,4 -4,0 z M 108,120 l 4,0 0,4 -4,0 z M 124,120 l 4,0 0,4 -4,0 z M 168,120 l 4,0 0,4 -4,0 z M 172,120 l 4,0 0,4 -4,0 z M 184,120 l 4,0 0,4 -4,0 z M 196,120 l 4,0 0,4 -4,0 z M 212,120 l 4,0 0,4 -4,0 z M 216,120 l 4,0 0,4 -4,0 z M 220,120 l 4,0 0,4 -4,0 z M 228,120 l 4,0 0,4 -4,0 z M 16,124 l 4,0 0,4 -4,0 z M 20,124 l 4,0 0,4 -4,0 z M 24,124 l 4,0 0,4 -4,0 z M 28,124 l 4,0 0,4 -4,0 z M 32,124 l 4,0 0,4 -4,0 z M 36,124 l 4,0 0,4 -4,0 z M 40,124 l 4,0 0,4 -4,0 z M 44,124 l 4,0 0,4 -4,0 z M 56,124 l 4,0 0,4 -4,0 z M 72,124 l 4,0 0,4 -4,0 z M 76,124 l 4,0 0,4 -4,0 z M 100,124 l 4,0 0,4 -4,0 z M 108,124 l 4,0 0,4 -4,0 z M 112,124 l 4,0 0,4 -4,0 z M 116,124 l 4,0 0,4 -4,0 z M 120,124 l 4,0 0,4 -4,0 z M 124,124 l 4,0 0,4 -4,0 z M 128,124 l 4,0 0,4 -4,0 z M 132,124 l 4,0 0,4 -4,0 z M 136,124 l 4,0 0,4 -4,0 z M 148,124 l 4,0 0,4 -4,0 z M 160,124 l 4,0 0,4 -4,0 z M 172,124 l 4,0 0,4 -4,0 z M 184,124 l 4,0 0,4 -4,0 z M 196,124 l 4,0 0,4 -4,0 z M 200,124 l 4,0 0,4 -4,0 z M 204,124 l 4,0 0,4 -4,0 z M 208,124 l 4,0 0,4 -4,0 z M 212,124 l 4,0 0,4 -4,0 z M 8,128 l 4,0 0,4 -4,0 z M 24,128 l 4,0 0,4 -4,0 z M 32,128 l 4,0 0,4 -4,0 z M 48,128 l 4,0 0,4 -4,0 z M 52,128 l 4,0 0,4 -4,0 z M 56,128 l 4,0 0,4 -4,0 z M 60,128 l 4,0 0,4 -4,0 z M 64,128 l 4,0 0,4 -4,0 z M 76,128 l 4,0 0,4 -4,0 z M 80,128 l 4,0 0,4 -4,0 z M 84,128 l 4,0 0,4 -4,0 z M 92,128 l 4,0 0,4 -4,0 z M 96,128 l 4,0 0,4 -4,0 z M 104,128 l 4,0 0,4 -4,0 z M 108,128 l 4,0 0,4 -4,0 z M 116,128 l 4,0 0,4 -4,0 z M 136,128 l 4,0 0,4 -4,0 z M 140,128 l 4,0 0,4 -4,0 z M 148,128 l 4,0 0,4 -4,0 z M 152,128 l 4,0 0,4 -4,0 z M 160,128 l 4,0 0,4 -4,0 z M 164,128 l 4,0 0,4 -4,0 z M 168,128 l 4,0 0,4 -4,0 z M 172,128 l 4,0 0,4 -4,0 z M 180,128 l 4,0 0,4 -4,0 z M 184,128 l 4,0 0,4 -4,0 z M 192,128 l 4,0 0,4 -4,0 z M 196,128 l 4,0 0,4 -4,0 z M 208,128 l 4,0 0,4 -4,0 z M 212,128 l 4,0 0,4 -4,0 z M 220,128 l 4,0 0,4 -4,0 z M 224,128 l 4,0 0,4 -4,0 z M 8,132 l 4,0 0,4 -4,0 z M 12,132 l 4,0 0,4 -4,0 z M 16,132 l 4,0 0,4 -4,0 z M 20,132 l 4,0 0,4 -4,0 z M 24,132 l 4,0 0,4 -4,0 z M 28,132 l 4,0 0,4 -4,0 z M 32,132 l 4,0 0,4 -4,0 z M 40,132 l 4,0 0,4 -4,0 z M 48,132 l 4,0 0,4 -4,0 z M 64,132 l 4,0 0,4 -4,0 z M 72,132 l 4,0 0,4 -4,0 z M 76,132 l 4,0 0,4 -4,0 z M 84,132 l 4,0 0,4 -4,0 z M 88,132 l 4,0 0,4 -4,0 z M 96,132 l 4,0 0,4 -4,0 z M 104,132 l 4,0 0,4 -4,0 z M 108,132 l 4,0 0,4 -4,0 z M 112,132 l 4,0 0,4 -4,0 z M 116,132 l 4,0 0,4 -4,0 z M 124,132 l 4,0 0,4 -4,0 z M 144,132 l 4,0 0,4 -4,0 z M 148,132 l 4,0 0,4 -4,0 z M 160,132 l 4,0 0,4 -4,0 z M 168,132 l 4,0 0,4 -4,0 z M 172,132 l 4,0 0,4 -4,0 z M 188,132 l 4,0 0,4 -4,0 z M 192,132 l 4,0 0,4 -4,0 z M 196,132 l 4,0 0,4 -4,0 z M 200,132 l 4,0 0,4 -4,0 z M 212,132 l 4,0 0,4 -4,0 z M 228,132 l 4,0 0,4 -4,0 z M 4,136 l 4,0 0,4 -4,0 z M 8,136 l 4,0 0,4 -4,0 z M 16,136 l 4,0 0,4 -4,0 z M 20,136 l 4,0 0,4 -4,0 z M 24,136 l 4,0 0,4 -4,0 z M 52,136 l 4,0 0,4 -4,0 z M 56,136 l 4,0 0,4 -4,0 z M 64,136 l 4,0 0,4 -4,0 z M 68,136 l 4,0 0,4 -4,0 z M 72,136 l 4,0 0,4 -4,0 z M 76,136 l 4,0 0,4 -4,0 z M 80,136 l 4,0 0,4 -4,0 z M 84,136 l 4,0 0,4 -4,0 z M 92,136 l 4,0 0,4 -4,0 z M 104,136 l 4,0 0,4 -4,0 z M 112,136 l 4,0 0,4 -4,0 z M 116,136 l 4,0 0,4 -4,0 z M 120,136 l 4,0 0,4 -4,0 z M 144,136 l 4,0 0,4 -4,0 z M 152,136 l 4,0 0,4 -4,0 z M 156,136 l 4,0 0,4 -4,0 z M 172,136 l 4,0 0,4 -4,0 z M 188,136 l 4,0 0,4 -4,0 z M 196,136 l 4,0 0,4 -4,0 z M 224,136 l 4,0 0,4 -4,0 z M 228,136 l 4,0 0,4 -4,0 z M 4,140 l 4,0 0,4 -4,0 z M 8,140 l 4,0 0,4 -4,0 z M 12,140 l 4,0 0,4 -4,0 z M 16,140 l 4,0 0,4 -4,0 z M 20,140 l 4,0 0,4 -4,0 z M 24,140 l 4,0 0,4 -4,0 z M 28,140 l 4,0 0,4 -4,0 z M 48,140 l 4,0 0,4 -4,0 z M 56,140 l 4,0 0,4 -4,0 z M 64,140 l 4,0 0,4 -4,0 z M 72,140 l 4,0 0,4 -4,0 z M 84,140 l 4,0 0,4 -4,0 z M 88,140 l 4,0 0,4 -4,0 z M 92,140 l 4,0 0,4 -4,0 z M 96,140 l 4,0 0,4 -4,0 z M 116,140 l 4,0 0,4 -4,0 z M 120,140 l 4,0 0,4 -4,0 z M 124,140 l 4,0 0,4 -4,0 z M 136,140 l 4,0 0,4 -4,0 z M 156,140 l 4,0 0,4 -4,0 z M 164,140 l 4,0 0,4 -4,0 z M 196,140 l 4,0 0,4 -4,0 z M 208,140 l 4,0 0,4 -4,0 z M 212,140 l 4,0 0,4 -4,0 z M 228,140 l 4,0 0,4 -4,0 z M 8,144 l 4,0 0,4 -4,0 z M 12,144 l 4,0 0,4 -4,0 z M 16,144 l 4,0 0,4 -4,0 z M 20,144 l 4,0 0,4 -4,0 z M 32,144 l 4,0 0,4 -4,0 z M 44,144 l 4,0 0,4 -4,0 z M 52,144 l 4,0 0,4 -4,0 z M 60,144 l 4,0 0,4 -4,0 z M 76,144 l 4,0 0,4 -4,0 z M 80,144 l 4,0 0,4 -4,0 z M 88,144 l 4,0 0,4 -4,0 z M 100,144 l 4,0 0,4 -4,0 z M 104,144 l 4,0 0,4 -4,0 z M 112,144 l 4,0 0,4 -4,0 z M 120,144 l 4,0 0,4 -4,0 z M 124,144 l 4,0 0,4 -4,0 z M 128,144 l 4,0 0,4 -4,0 z M 140,144 l 4,0 0,4 -4,0 z M 144,144 l 4,0 0,4 -4,0 z M 160,144 l 4,0 0,4 -4,0 z M 164,144 l 4,0 0,4 -4,0 z M 172,144 l 4,0 0,4 -4,0 z M 180,144 l 4,0 0,4 -4,0 z M 184,144 l 4,0 0,4 -4,0 z M 188,144 l 4,0 0,4 -4,0 z M 192,144 l 4,0 0,4 -4,0 z M 212,144 l 4,0 0,4 -4,0 z M 216,144 l 4,0 0,4 -4,0 z M 224,144 l 4,0 0,4 -4,0 z M 228,144 l 4,0 0,4 -4,0 z M 20,148 l 4,0 0,4 -4,0 z M 24,148 l 4,0 0,4 -4,0 z M 28,148 l 4,0 0,4 -4,0 z M 32,148 l 4,0 0,4 -4,0 z M 36,148 l 4,0 0,4 -4,0 z M 44,148 l 4,0 0,4 -4,0 z M 48,148 l 4,0 0,4 -4,0 z M 56,148 l 4,0 0,4 -4,0 z M 64,148 l 4,0 0,4 -4,0 z M 72,148 l 4,0 0,4 -4,0 z M 76,148 l 4,0 0,4 -4,0 z M 80,148 l 4,0 0,4 -4,0 z M 88,148 l 4,0 0,4 -4,0 z M 96,148 l 4,0 0,4 -4,0 z M 100,148 l 4,0 0,4 -4,0 z M 104,148 l 4,0 0,4 -4,0 z M 116,148 l 4,0 0,4 -4,0 z M 124,148 l 4,0 0,4 -4,0 z M 128,148 l 4,0 0,4 -4,0 z M 148,148 l 4,0 0,4 -4,0 z M 156,148 l 4,0 0,4 -4,0 z M 160,148 l 4,0 0,4 -4,0 z M 164,148 l 4,0 0,4 -4,0 z M 168,148 l 4,0 0,4 -4,0 z M 172,148 l 4,0 0,4 -4,0 z M 184,148 l 4,0 0,4 -4,0 z M 188,148 l 4,0 0,4 -4,0 z M 208,148 l 4,0 0,4 -4,0 z M 212,148 l 4,0 0,4 -4,0 z M 8,152 l 4,0 0,4 -4,0 z M 16,152 l 4,0 0,4 -4,0 z M 24,152 l 4,0 0,4 -4,0 z M 32,152 l 4,0 0,4 -4,0 z M 36,152 l 4,0 0,4 -4,0 z M 44,152 l 4,0 0,4 -4,0 z M 48,152 l 4,0 0,4 -4,0 z M 60,152 l 4,0 0,4 -4,0 z M 68,152 l 4,0 0,4 -4,0 z M 88,152 l 4,0 0,4 -4,0 z M 96,152 l 4,0 0,4 -4,0 z M 100,152 l 4,0 0,4 -4,0 z M 124,152 l 4,0 0,4 -4,0 z M 128,152 l 4,0 0,4 -4,0 z M 132,152 l 4,0 0,4 -4,0 z M 144,152 l 4,0 0,4 -4,0 z M 152,152 l 4,0 0,4 -4,0 z M 160,152 l 4,0 0,4 -4,0 z M 168,152 l 4,0 0,4 -4,0 z M 172,152 l 4,0 0,4 -4,0 z M 192,152 l 4,0 0,4 -4,0 z M 196,152 l 4,0 0,4 -4,0 z M 204,152 l 4,0 0,4 -4,0 z M 208,152 l 4,0 0,4 -4,0 z M 216,152 l 4,0 0,4 -4,0 z M 228,152 l 4,0 0,4 -4,0 z M 8,156 l 4,0 0,4 -4,0 z M 12,156 l 4,0 0,4 -4,0 z M 16,156 l 4,0 0,4 -4,0 z M 20,156 l 4,0 0,4 -4,0 z M 24,156 l 4,0 0,4 -4,0 z M 28,156 l 4,0 0,4 -4,0 z M 32,156 l 4,0 0,4 -4,0 z M 48,156 l 4,0 0,4 -4,0 z M 52,156 l 4,0 0,4 -4,0 z M 60,156 l 4,0 0,4 -4,0 z M 64,156 l 4,0 0,4 -4,0 z M 68,156 l 4,0 0,4 -4,0 z M 80,156 l 4,0 0,4 -4,0 z M 92,156 l 4,0 0,4 -4,0 z M 100,156 l 4,0 0,4 -4,0 z M 104,156 l 4,0 0,4 -4,0 z M 108,156 l 4,0 0,4 -4,0 z M 128,156 l 4,0 0,4 -4,0 z M 136,156 l 4,0 0,4 -4,0 z M 140,156 l 4,0 0,4 -4,0 z M 144,156 l 4,0 0,4 -4,0 z M 148,156 l 4,0 0,4 -4,0 z M 156,156 l 4,0 0,4 -4,0 z M 160,156 l 4,0 0,4 -4,0 z M 168,156 l 4,0 0,4 -4,0 z M 176,156 l 4,0 0,4 -4,0 z M 184,156 l 4,0 0,4 -4,0 z M 196,156 l 4,0 0,4 -4,0 z M 200,156 l 4,0 0,4 -4,0 z M 208,156 l 4,0 0,4 -4,0 z M 212,156 l 4,0 0,4 -4,0 z M 216,156 l 4,0 0,4 -4,0 z M 224,156 l 4,0 0,4 -4,0 z M 4,160 l 4,0 0,4 -4,0 z M 12,160 l 4,0 0,4 -4,0 z M 32,160 l 4,0 0,4 -4,0 z M 36,160 l 4,0 0,4 -4,0 z M 44,160 l 4,0 0,4 -4,0 z M 48,160 l 4,0 0,4 -4,0 z M 52,160 l 4,0 0,4 -4,0 z M 56,160 l 4,0 0,4 -4,0 z M 68,160 l 4,0 0,4 -4,0 z M 72,160 l 4,0 0,4 -4,0 z M 76,160 l 4,0 0,4 -4,0 z M 92,160 l 4,0 0,4 -4,0 z M 116,160 l 4,0 0,4 -4,0 z M 144,160 l 4,0 0,4 -4,0 z M 156,160 l 4,0 0,4 -4,0 z M 160,160 l 4,0 0,4 -4,0 z M 172,160 l 4,0 0,4 -4,0 z M 180,160 l 4,0 0,4 -4,0 z M 196,160 l 4,0 0,4 -4,0 z M 204,160 l 4,0 0,4 -4,0 z M 212,160 l 4,0 0,4 -4,0 z M 216,160 l 4,0 0,4 -4,0 z M 220,160 l 4,0 0,4 -4,0 z M 224,160 l 4,0 0,4 -4,0 z M 8,164 l 4,0 0,4 -4,0 z M 16,164 l 4,0 0,4 -4,0 z M 20,164 l 4,0 0,4 -4,0 z M 24,164 l 4,0 0,4 -4,0 z M 28,164 l 4,0 0,4 -4,0 z M 32,164 l 4,0 0,4 -4,0 z M 36,164 l 4,0 0,4 -4,0 z M 44,164 l 4,0 0,4 -4,0 z M 48,164 l 4,0 0,4 -4,0 z M 52,164 l 4,0 0,4 -4,0 z M 60,164 l 4,0 0,4 -4,0 z M 64,164 l 4,0 0,4 -4,0 z M 68,164 l 4,0 0,4 -4,0 z M 72,164 l 4,0 0,4 -4,0 z M 76,164 l 4,0 0,4 -4,0 z M 80,164 l 4,0 0,4 -4,0 z M 84,164 l 4,0 0,4 -4,0 z M 88,164 l 4,0 0,4 -4,0 z M 96,164 l 4,0 0,4 -4,0 z M 120,164 l 4,0 0,4 -4,0 z M 136,164 l 4,0 0,4 -4,0 z M 148,164 l 4,0 0,4 -4,0 z M 152,164 l 4,0 0,4 -4,0 z M 156,164 l 4,0 0,4 -4,0 z M 168,164 l 4,0 0,4 -4,0 z M 176,164 l 4,0 0,4 -4,0 z M 184,164 l 4,0 0,4 -4,0 z M 196,164 l 4,0 0,4 -4,0 z M 208,164 l 4,0 0,4 -4,0 z M 4,168 l 4,0 0,4 -4,0 z M 16,168 l 4,0 0,4 -4,0 z M 24,168 l 4,0 0,4 -4,0 z M 36,168 l 4,0 0,4 -4,0 z M 40,168 l 4,0 0,4 -4,0 z M 48,168 l 4,0 0,4 -4,0 z M 52,168 l 4,0 0,4 -4,0 z M 60,168 l 4,0 0,4 -4,0 z M 80,168 l 4,0 0,4 -4,0 z M 88,168 l 4,0 0,4 -4,0 z M 92,168 l 4,0 0,4 -4,0 z M 96,168 l 4,0 0,4 -4,0 z M 100,168 l 4,0 0,4 -4,0 z M 124,168 l 4,0 0,4 -4,0 z M 128,168 l 4,0 0,4 -4,0 z M 144,168 l 4,0 0,4 -4,0 z M 172,168 l 4,0 0,4 -4,0 z M 176,168 l 4,0 0,4 -4,0 z M 192,168 l 4,0 0,4 -4,0 z M 196,168 l 4,0 0,4 -4,0 z M 220,168 l 4,0 0,4 -4,0 z M 228,168 l 4,0 0,4 -4,0 z M 8,172 l 4,0 0,4 -4,0 z M 12,172 l 4,0 0,4 -4,0 z M 20,172 l 4,0 0,4 -4,0 z M 24,172 l 4,0 0,4 -4,0 z M 28,172 l 4,0 0,4 -4,0 z M 32,172 l 4,0 0,4 -4,0 z M 48,172 l 4,0 0,4 -4,0 z M 56,172 l 4,0 0,4 -4,0 z M 68,172 l 4,0 0,4 -4,0 z M 72,172 l 4,0 0,4 -4,0 z M 80,172 l 4,0 0,4 -4,0 z M 84,172 l 4,0 0,4 -4,0 z M 88,172 l 4,0 0,4 -4,0 z M 100,172 l 4,0 0,4 -4,0 z M 112,172 l 4,0 0,4 -4,0 z M 116,172 l 4,0 0,4 -4,0 z M 124,172 l 4,0 0,4 -4,0 z M 136,172 l 4,0 0,4 -4,0 z M 140,172 l 4,0 0,4 -4,0 z M 152,172 l 4,0 0,4 -4,0 z M 156,172 l 4,0 0,4 -4,0 z M 160,172 l 4,0 0,4 -4,0 z M 172,172 l 4,0 0,4 -4,0 z M 176,172 l 4,0 0,4 -4,0 z M 184,172 l 4,0 0,4 -4,0 z M 188,172 l 4,0 0,4 -4,0 z M 192,172 l 4,0 0,4 -4,0 z M 208,172 l 4,0 0,4 -4,0 z M 212,172 l 4,0 0,4 -4,0 z M 216,172 l 4,0 0,4 -4,0 z M 224,172 l 4,0 0,4 -4,0 z M 8,176 l 4,0 0,4 -4,0 z M 16,176 l 4,0 0,4 -4,0 z M 20,176 l 4,0 0,4 -4,0 z M 24,176 l 4,0 0,4 -4,0 z M 36,176 l 4,0 0,4 -4,0 z M 40,176 l 4,0 0,4 -4,0 z M 44,176 l 4,0 0,4 -4,0 z M 48,176 l 4,0 0,4 -4,0 z M 52,176 l 4,0 0,4 -4,0 z M 56,176 l 4,0 0,4 -4,0 z M 60,176 l 4,0 0,4 -4,0 z M 64,176 l 4,0 0,4 -4,0 z M 68,176 l 4,0 0,4 -4,0 z M 80,176 l 4,0 0,4 -4,0 z M 96,176 l 4,0 0,4 -4,0 z M 100,176 l 4,0 0,4 -4,0 z M 112,176 l 4,0 0,4 -4,0 z M 116,176 l 4,0 0,4 -4,0 z M 132,176 l 4,0 0,4 -4,0 z M 136,176 l 4,0 0,4 -4,0 z M 144,176 l 4,0 0,4 -4,0 z M 152,176 l 4,0 0,4 -4,0 z M 160,176 l 4,0 0,4 -4,0 z M 164,176 l 4,0 0,4 -4,0 z M 172,176 l 4,0 0,4 -4,0 z M 192,176 l 4,0 0,4 -4,0 z M 208,176 l 4,0 0,4 -4,0 z M 212,176 l 4,0 0,4 -4,0 z M 216,176 l 4,0 0,4 -4,0 z M 220,176 l 4,0 0,4 -4,0 z M 228,176 l 4,0 0,4 -4,0 z M 12,180 l 4,0 0,4 -4,0 z M 16,180 l 4,0 0,4 -4,0 z M 20,180 l 4,0 0,4 -4,0 z M 24,180 l 4,0 0,4 -4,0 z M 28,180 l 4,0 0,4 -4,0 z M 32,180 l 4,0 0,4 -4,0 z M 36,180 l 4,0 0,4 -4,0 z M 40,180 l 4,0 0,4 -4,0 z M 48,180 l 4,0 0,4 -4,0 z M 64,180 l 4,0 0,4 -4,0 z M 68,180 l 4,0 0,4 -4,0 z M 72,180 l 4,0 0,4 -4,0 z M 84,180 l 4,0 0,4 -4,0 z M 88,180 l 4,0 0,4 -4,0 z M 100,180 l 4,0 0,4 -4,0 z M 104,180 l 4,0 0,4 -4,0 z M 108,180 l 4,0 0,4 -4,0 z M 112,180 l 4,0 0,4 -4,0 z M 116,180 l 4,0 0,4 -4,0 z M 120,180 l 4,0 0,4 -4,0 z M 128,180 l 4,0 0,4 -4,0 z M 136,180 l 4,0 0,4 -4,0 z M 140,180 l 4,0 0,4 -4,0 z M 148,180 l 4,0 0,4 -4,0 z M 152,180 l 4,0 0,4 -4,0 z M 156,180 l 4,0 0,4 -4,0 z M 172,180 l 4,0 0,4 -4,0 z M 184,180 l 4,0 0,4 -4,0 z M 188,180 l 4,0 0,4 -4,0 z M 208,180 l 4,0 0,4 -4,0 z M 212,180 l 4,0 0,4 -4,0 z M 216,180 l 4,0 0,4 -4,0 z M 224,180 l 4,0 0,4 -4,0 z M 228,180 l 4,0 0,4 -4,0 z M 8,184 l 4,0 0,4 -4,0 z M 12,184 l 4,0 0,4 -4,0 z M 16,184 l 4,0 0,4 -4,0 z M 20,184 l 4,0 0,4 -4,0 z M 36,184 l 4,0 0,4 -4,0 z M 48,184 l 4,0 0,4 -4,0 z M 52,184 l 4,0 0,4 -4,0 z M 64,184 l 4,0 0,4 -4,0 z M 68,184 l 4,0 0,4 -4,0 z M 76,184 l 4,0 0,4 -4,0 z M 84,184 l 4,0 0,4 -4,0 z M 96,184 l 4,0 0,4 -4,0 z M 100,184 l 4,0 0,4 -4,0 z M 120,184 l 4,0 0,4 -4,0 z M 124,184 l 4,0 0,4 -4,0 z M 128,184 l 4,0 0,4 -4,0 z M 136,184 l 4,0 0,4 -4,0 z M 144,184 l 4,0 0,4 -4,0 z M 160,184 l 4,0 0,4 -4,0 z M 172,184 l 4,0 0,4 -4,0 z M 196,184 l 4,0 0,4 -4,0 z M 200,184 l 4,0 0,4 -4,0 z M 204,184 l 4,0 0,4 -4,0 z M 208,184 l 4,0 0,4 -4,0 z M 216,184 l 4,0 0,4 -4,0 z M 228,184 l 4,0 0,4 -4,0 z M 4,188 l 4,0 0,4 -4,0 z M 12,188 l 4,0 0,4 -4,0 z M 24,188 l 4,0 0,4 -4,0 z M 28,188 l 4,0 0,4 -4,0 z M 32,188 l 4,0 0,4 -4,0 z M 40,188 l 4,0 0,4 -4,0 z M 52,188 l 4,0 0,4 -4,0 z M 56,188 l 4,0 0,4 -4,0 z M 72,188 l 4,0 0,4 -4,0 z M 76,188 l 4,0 0,4 -4,0 z M 80,188 l 4,0 0,4 -4,0 z M 112,188 l 4,0 0,4 -4,0 z M 116,188 l 4,0 0,4 -4,0 z M 124,188 l 4,0 0,4 -4,0 z M 132,188 l 4,0 0,4 -4,0 z M 136,188 l 4,0 0,4 -4,0 z M 144,188 l 4,0 0,4 -4,0 z M 148,188 l 4,0 0,4 -4,0 z M 156,188 l 4,0 0,4 -4,0 z M 160,188 l 4,0 0,4 -4,0 z M 164,188 l 4,0 0,4 -4,0 z M 172,188 l 4,0 0,4 -4,0 z M 176,188 l 4,0 0,4 -4,0 z M 184,188 l 4,0 0,4 -4,0 z M 188,188 l 4,0 0,4 -4,0 z M 192,188 l 4,0 0,4 -4,0 z M 212,188 l 4,0 0,4 -4,0 z M 216,188 l 4,0 0,4 -4,0 z M 220,188 l 4,0 0,4 -4,0 z M 4,192 l 4,0 0,4 -4,0 z M 8,192 l 4,0 0,4 -4,0 z M 12,192 l 4,0 0,4 -4,0 z M 16,192 l 4,0 0,4 -4,0 z M 20,192 l 4,0 0,4 -4,0 z M 32,192 l 4,0 0,4 -4,0 z M 48,192 l 4,0 0,4 -4,0 z M 56,192 l 4,0 0,4 -4,0 z M 60,192 l 4,0 0,4 -4,0 z M 68,192 l 4,0 0,4 -4,0 z M 76,192 l 4,0 0,4 -4,0 z M 80,192 l 4,0 0,4 -4,0 z M 84,192 l 4,0 0,4 -4,0 z M 88,192 l 4,0 0,4 -4,0 z M 92,192 l 4,0 0,4 -4,0 z M 96,192 l 4,0 0,4 -4,0 z M 104,192 l 4,0 0,4 -4,0 z M 108,192 l 4,0 0,4 -4,0 z M 116,192 l 4,0 0,4 -4,0 z M 124,192 l 4,0 0,4 -4,0 z M 136,192 l 4,0 0,4 -4,0 z M 140,192 l 4,0 0,4 -4,0 z M 148,192 l 4,0 0,4 -4,0 z M 152,192 l 4,0 0,4 -4,0 z M 156,192 l 4,0 0,4 -4,0 z M 160,192 l 4,0 0,4 -4,0 z M 164,192 l 4,0 0,4 -4,0 z M 168,192 l 4,0 0,4 -4,0 z M 172,192 l 4,0 0,4 -4,0 z M 176,192 l 4,0 0,4 -4,0 z M 180,192 l 4,0 0,4 -4,0 z M 184,192 l 4,0 0,4 -4,0 z M 196,192 l 4,0 0,4 -4,0 z M 200,192 l 4,0 0,4 -4,0 z M 204,192 l 4,0 0,4 -4,0 z M 208,192 l 4,0 0,4 -4,0 z M 212,192 l 4,0 0,4 -4,0 z M 28,196 l 4,0 0,4 -4,0 z M 36,196 l 4,0 0,4 -4,0 z M 40,196 l 4,0 0,4 -4,0 z M 44,196 l 4,0 0,4 -4,0 z M 48,196 l 4,0 0,4 -4,0 z M 52,196 l 4,0 0,4 -4,0 z M 56,196 l 4,0 0,4 -4,0 z M 68,196 l 4,0 0,4 -4,0 z M 72,196 l 4,0 0,4 -4,0 z M 80,196 l 4,0 0,4 -4,0 z M 88,196 l 4,0 0,4 -4,0 z M 92,196 l 4,0 0,4 -4,0 z M 104,196 l 4,0 0,4 -4,0 z M 108,196 l 4,0 0,4 -4,0 z M 112,196 l 4,0 0,4 -4,0 z M 116,196 l 4,0 0,4 -4,0 z M 120,196 l 4,0 0,4 -4,0 z M 124,196 l 4,0 0,4 -4,0 z M 132,196 l 4,0 0,4 -4,0 z M 144,196 l 4,0 0,4 -4,0 z M 148,196 l 4,0 0,4 -4,0 z M 164,196 l 4,0 0,4 -4,0 z M 168,196 l 4,0 0,4 -4,0 z M 172,196 l 4,0 0,4 -4,0 z M 184,196 l 4,0 0,4 -4,0 z M 196,196 l 4,0 0,4 -4,0 z M 200,196 l 4,0 0,4 -4,0 z M 204,196 l 4,0 0,4 -4,0 z M 208,196 l 4,0 0,4 -4,0 z M 212,196 l 4,0 0,4 -4,0 z M 216,196 l 4,0 0,4 -4,0 z M 220,196 l 4,0 0,4 -4,0 z M 228,196 l 4,0 0,4 -4,0 z M 36,200 l 4,0 0,4 -4,0 z M 64,200 l 4,0 0,4 -4,0 z M 68,200 l 4,0 0,4 -4,0 z M 76,200 l 4,0 0,4 -4,0 z M 88,200 l 4,0 0,4 -4,0 z M 100,200 l 4,0 0,4 -4,0 z M 108,200 l 4,0 0,4 -4,0 z M 124,200 l 4,0 0,4 -4,0 z M 140,200 l 4,0 0,4 -4,0 z M 148,200 l 4,0 0,4 -4,0 z M 156,200 l 4,0 0,4 -4,0 z M 160,200 l 4,0 0,4 -4,0 z M 172,200 l 4,0 0,4 -4,0 z M 184,200 l 4,0 0,4 -4,0 z M 196,200 l 4,0 0,4 -4,0 z M 212,200 l 4,0 0,4 -4,0 z M 224,200 l 4,0 0,4 -4,0 z M 4,204 l 4,0 0,4 -4,0 z M 8,204 l 4,0 0,4 -4,0 z M 12,204 l 4,0 0,4 -4,0 z M 16,204 l 4,0 0,4 -4,0 z M 20,204 l 4,0 0,4 -4,0 z M 24,204 l 4,0 0,4 -4,0 z M 28,204 l 4,0 0,4 -4,0 z M 36,204 l 4,0 0,4 -4,0 z M 48,204 l 4,0 0,4 -4,0 z M 52,204 l 4,0 0,4 -4,0 z M 56,204 l 4,0 0,4 -4,0 z M 60,204 l 4,0 0,4 -4,0 z M 68,204 l 4,0 0,4 -4,0 z M 72,204 l 4,0 0,4 -4,0 z M 84,204 l 4,0 0,4 -4,0 z M 92,204 l 4,0 0,4 -4,0 z M 96,204 l 4,0 0,4 -4,0 z M 108,204 l 4,0 0,4 -4,0 z M 116,204 l 4,0 0,4 -4,0 z M 124,204 l 4,0 0,4 -4,0 z M 132,204 l 4,0 0,4 -4,0 z M 148,204 l 4,0 0,4 -4,0 z M 160,204 l 4,0 0,4 -4,0 z M 168,204 l 4,0 0,4 -4,0 z M 184,204 l 4,0 0,4 -4,0 z M 196,204 l 4,0 0,4 -4,0 z M 204,204 l 4,0 0,4 -4,0 z M 212,204 l 4,0 0,4 -4,0 z M 216,204 l 4,0 0,4 -4,0 z M 220,204 l 4,0 0,4 -4,0 z M 224,204 l 4,0 0,4 -4,0 z M 4,208 l 4,0 0,4 -4,0 z M 28,208 l 4,0 0,4 -4,0 z M 40,208 l 4,0 0,4 -4,0 z M 44,208 l 4,0 0,4 -4,0 z M 64,208 l 4,0 0,4 -4,0 z M 72,208 l 4,0 0,4 -4,0 z M 76,208 l 4,0 0,4 -4,0 z M 80,208 l 4,0 0,4 -4,0 z M 88,208 l 4,0 0,4 -4,0 z M 96,208 l 4,0 0,4 -4,0 z M 100,208 l 4,0 0,4 -4,0 z M 104,208 l 4,0 0,4 -4,0 z M 108,208 l 4,0 0,4 -4,0 z M 124,208 l 4,0 0,4 -4,0 z M 128,208 l 4,0 0,4 -4,0 z M 132,208 l 4,0 0,4 -4,0 z M 136,208 l 4,0 0,4 -4,0 z M 144,208 l 4,0 0,4 -4,0 z M 148,208 l 4,0 0,4 -4,0 z M 152,208 l 4,0 0,4 -4,0 z M 172,208 l 4,0 0,4 -4,0 z M 176,208 l 4,0 0,4 -4,0 z M 180,208 l 4,0 0,4 -4,0 z M 188,208 l 4,0 0,4 -4,0 z M 196,208 l 4,0 0,4 -4,0 z M 212,208 l 4,0 0,4 -4,0 z M 216,208 l 4,0 0,4 -4,0 z M 4,212 l 4,0 0,4 -4,0 z M 12,212 l 4,0 0,4 -4,0 z M 16,212 l 4,0 0,4 -4,0 z M 20,212 l 4,0 0,4 -4,0 z M 28,212 l 4,0 0,4 -4,0 z M 36,212 l 4,0 0,4 -4,0 z M 44,212 l 4,0 0,4 -4,0 z M 48,212 l 4,0 0,4 -4,0 z M 52,212 l 4,0 0,4 -4,0 z M 60,212 l 4,0 0,4 -4,0 z M 72,212 l 4,0 0,4 -4,0 z M 92,212 l 4,0 0,4 -4,0 z M 100,212 l 4,0 0,4 -4,0 z M 108,212 l 4,0 0,4 -4,0 z M 112,212 l 4,0 0,4 -4,0 z M 116,212 l 4,0 0,4 -4,0 z M 120,212 l 4,0 0,4 -4,0 z M 124,212 l 4,0 0,4 -4,0 z M 132,212 l 4,0 0,4 -4,0 z M 148,212 l 4,0 0,4 -4,0 z M 152,212 l 4,0 0,4 -4,0 z M 164,212 l 4,0 0,4 -4,0 z M 168,212 l 4,0 0,4 -4,0 z M 180,212 l 4,0 0,4 -4,0 z M 184,212 l 4,0 0,4 -4,0 z M 188,212 l 4,0 0,4 -4,0 z M 196,212 l 4,0 0,4 -4,0 z M 200,212 l 4,0 0,4 -4,0 z M 204,212 l 4,0 0,4 -4,0 z M 208,212 l 4,0 0,4 -4,0 z M 212,212 l 4,0 0,4 -4,0 z M 224,212 l 4,0 0,4 -4,0 z M 4,216 l 4,0 0,4 -4,0 z M 12,216 l 4,0 0,4 -4,0 z M 16,216 l 4,0 0,4 -4,0 z M 20,216 l 4,0 0,4 -4,0 z M 28,216 l 4,0 0,4 -4,0 z M 36,216 l 4,0 0,4 -4,0 z M 44,216 l 4,0 0,4 -4,0 z M 48,216 l 4,0 0,4 -4,0 z M 52,216 l 4,0 0,4 -4,0 z M 60,216 l 4,0 0,4 -4,0 z M 64,216 l 4,0 0,4 -4,0 z M 80,216 l 4,0 0,4 -4,0 z M 84,216 l 4,0 0,4 -4,0 z M 88,216 l 4,0 0,4 -4,0 z M 92,216 l 4,0 0,4 -4,0 z M 100,216 l 4,0 0,4 -4,0 z M 112,216 l 4,0 0,4 -4,0 z M 116,216 l 4,0 0,4 -4,0 z M 124,216 l 4,0 0,4 -4,0 z M 152,216 l 4,0 0,4 -4,0 z M 160,216 l 4,0 0,4 -4,0 z M 164,216 l 4,0 0,4 -4,0 z M 168,216 l 4,0 0,4 -4,0 z M 172,216 l 4,0 0,4 -4,0 z M 176,216 l 4,0 0,4 -4,0 z M 188,216 l 4,0 0,4 -4,0 z M 192,216 l 4,0 0,4 -4,0 z M 212,216 l 4,0 0,4 -4,0 z M 4,220 l 4,0 0,4 -4,0 z M 12,220 l 4,0 0,4 -4,0 z M 16,220 l 4,0 0,4 -4,0 z M 20,220 l 4,0 0,4 -4,0 z M 28,220 l 4,0 0,4 -4,0 z M 36,220 l 4,0 0,4 -4,0 z M 52,220 l 4,0 0,4 -4,0 z M 72,220 l 4,0 0,4 -4,0 z M 84,220 l 4,0 0,4 -4,0 z M 92,220 l 4,0 0,4 -4,0 z M 100,220 l 4,0 0,4 -4,0 z M 108,220 l 4,0 0,4 -4,0 z M 116,220 l 4,0 0,4 -4,0 z M 120,220 l 4,0 0,4 -4,0 z M 128,220 l 4,0 0,4 -4,0 z M 136,220 l 4,0 0,4 -4,0 z M 140,220 l 4,0 0,4 -4,0 z M 144,220 l 4,0 0,4 -4,0 z M 148,220 l 4,0 0,4 -4,0 z M 152,220 l 4,0 0,4 -4,0 z M 156,220 l 4,0 0,4 -4,0 z M 160,220 l 4,0 0,4 -4,0 z M 176,220 l 4,0 0,4 -4,0 z M 180,220 l 4,0 0,4 -4,0 z M 184,220 l 4,0 0,4 -4,0 z M 192,220 l 4,0 0,4 -4,0 z M 196,220 l 4,0 0,4 -4,0 z M 204,220 l 4,0 0,4 -4,0 z M 212,220 l 4,0 0,4 -4,0 z M 216,220 l 4,0 0,4 -4,0 z M 220,220 l 4,0 0,4 -4,0 z M 4,224 l 4,0 0,4 -4,0 z M 28,224 l 4,0 0,4 -4,0 z M 36,224 l 4,0 0,4 -4,0 z M 40,224 l 4,0 0,4 -4,0 z M 48,224 l 4,0 0,4 -4,0 z M 56,224 l 4,0 0,4 -4,0 z M 64,224 l 4,0 0,4 -4,0 z M 80,224 l 4,0 0,4 -4,0 z M 84,224 l 4,0 0,4 -4,0 z M 92,224 l 4,0 0,4 -4,0 z M 100,224 l 4,0 0,4 -4,0 z M 112,224 l 4,0 0,4 -4,0 z M 132,224 l 4,0 0,4 -4,0 z M 136,224 l 4,0 0,4 -4,0 z M 140,224 l 4,0 0,4 -4,0 z M 144,224 l 4,0 0,4 -4,0 z M 156,224 l 4,0 0,4 -4,0 z M 160,224 l 4,0 0,4 -4,0 z M 176,224 l 4,0 0,4 -4,0 z M 180,224 l 4,0 0,4 -4,0 z M 184,224 l 4,0 0,4 -4,0 z M 188,224 l 4,0 0,4 -4,0 z M 192,224 l 4,0 0,4 -4,0 z M 196,224 l 4,0 0,4 -4,0 z M 200,224 l 4,0 0,4 -4,0 z M 208,224 l 4,0 0,4 -4,0 z M 212,224 l 4,0 0,4 -4,0 z M 216,224 l 4,0 0,4 -4,0 z M 220,224 l 4,0 0,4 -4,0 z M 228,224 l 4,0 0,4 -4,0 z M 4,228 l 4,0 0,4 -4,0 z M 8,228 l 4,0 0,4 -4,0 z M 12,228 l 4,0 0,4 -4,0 z M 16,228 l 4,0 0,4 -4,0 z M 20,228 l 4,0 0,4 -4,0 z M 24,228 l 4,0 0,4 -4,0 z M 28,228 l 4,0 0,4 -4,0 z M 36,228 l 4,0 0,4 -4,0 z M 44,228 l 4,0 0,4 -4,0 z M 48,228 l 4,0 0,4 -4,0 z M 64,228 l 4,0 0,4 -4,0 z M 68,228 l 4,0 0,4 -4,0 z M 72,228 l 4,0 0,4 -4,0 z M 76,228 l 4,0 0,4 -4,0 z M 80,228 l 4,0 0,4 -4,0 z M 84,228 l 4,0 0,4 -4,0 z M 96,228 l 4,0 0,4 -4,0 z M 104,228 l 4,0 0,4 -4,0 z M 128,228 l 4,0 0,4 -4,0 z M 148,228 l 4,0 0,4 -4,0 z M 152,228 l 4,0 0,4 -4,0 z M 156,228 l 4,0 0,4 -4,0 z M 176,228 l 4,0 0,4 -4,0 z M 188,228 l 4,0 0,4 -4,0 z M 196,228 l 4,0 0,4 -4,0 z M 200,228 l 4,0 0,4 -4,0 z M 208,228 l 4,0 0,4 -4,0 z M 212,228 l 4,0 0,4 -4,0 z " />
	</g>
</svg>
